<svg width="107" height="60" viewBox="0 0 107 60" fill="none" xmlns="http://www.w3.org/2000/svg">
<g id="Logo" clip-path="url(#clip0_2660_10674)">
<path id="Vector" d="M106.262 21.187C106.273 21.1052 106.273 21.0225 106.262 20.9407C106.272 20.874 106.272 20.806 106.262 20.7392L105.477 14.9852C105.364 14.2968 105.061 13.6533 104.602 13.1269L104.468 12.9701L104.221 12.7238L90.6333 1.03663L91.0144 1.41728C90.7026 1.04471 90.3111 0.746713 89.8688 0.545225C89.4265 0.343737 88.9444 0.243882 88.4583 0.253026H84.3325C83.6617 0.239754 83.0061 0.45274 82.4715 0.857546C81.9101 0.455178 81.2342 0.243281 80.5432 0.253026H76.4174C75.8763 0.24426 75.3425 0.378354 74.87 0.641771C74.3975 0.905187 74.0031 1.28857 73.7268 1.7531C73.3006 2.41658 73.1405 3.21597 73.2783 3.99203L73.794 7.61908C73.4523 7.42569 73.0656 7.32534 72.6729 7.32805H52.6945C51.9777 7.33254 51.2774 7.54232 50.6764 7.93253C50.0953 8.29574 49.6288 8.81582 49.3311 9.4326L47.7839 8.11165C47.175 7.54906 46.3713 7.24413 45.5417 7.26087H14.1952C13.4759 7.27396 12.7725 7.47462 12.1548 7.84299C11.3098 8.33687 10.6905 9.13991 10.4282 10.0819L0.472696 43.33C0.28668 43.8779 0.268381 44.4687 0.420143 45.027C0.571904 45.5852 0.886854 46.0858 1.32476 46.4646C1.43886 46.5611 1.55867 46.6509 1.68352 46.7331C1.68352 46.7331 1.48169 46.5988 1.36958 46.4869L14.9576 58.1965C15.5324 58.7249 16.2839 59.0203 17.0652 59.0248H48.6585C49.38 59.0061 50.0838 58.7976 50.6989 58.4203C51.0468 58.2305 51.358 57.9803 51.6182 57.6814L51.7304 57.5247L51.9097 57.3009L52.0442 57.0546L53.5242 58.3308C54.0907 58.8382 54.8259 59.1174 55.587 59.1144H87.2474C87.9682 59.0905 88.6707 58.8824 89.2878 58.5099C89.6279 58.3085 89.9374 58.0596 90.2073 57.7711L90.3192 57.6143L90.4986 57.3905C90.594 57.2488 90.6767 57.099 90.7453 56.9426C90.8185 56.8069 90.8786 56.6645 90.9246 56.5173L100.006 26.1575V25.8888C100.017 25.7846 100.017 25.6795 100.006 25.5753V25.3739C100.017 25.3071 100.017 25.2391 100.006 25.1723C100.016 25.0307 100.016 24.8885 100.006 24.7468H102.921C103.174 24.7701 103.429 24.7701 103.683 24.7468H103.885C104.049 24.698 104.207 24.6303 104.356 24.5454H104.58L104.984 24.2319L105.163 24.0976L105.477 23.6945V23.5603L105.701 23.1796C105.689 23.1056 105.689 23.0298 105.701 22.9558C105.689 22.9195 105.689 22.8802 105.701 22.8438C105.749 22.7126 105.786 22.5778 105.813 22.4408C105.803 22.3966 105.803 22.3506 105.813 22.3064C105.802 22.2398 105.802 22.1716 105.813 22.105C105.813 22.105 106.262 21.2317 106.262 21.187Z" fill="#191B1D"/>
<path id="Vector_2" d="M46.461 9.81319C46.5801 9.92068 46.6632 10.062 46.6993 10.2181C46.7355 10.3743 46.7227 10.5377 46.6629 10.6864L36.7298 43.9121C36.6047 44.2748 36.3488 44.5781 36.0123 44.7629C35.7384 44.9458 35.4215 45.0538 35.0929 45.0763H3.52219C3.25258 45.0634 2.99714 44.9519 2.80467 44.7629C2.69016 44.6571 2.6098 44.5197 2.57385 44.3682C2.5379 44.2167 2.54803 44.0579 2.60287 43.9121L12.5584 10.6864C12.6731 10.319 12.921 10.0077 13.2535 9.81319C13.5319 9.64341 13.8473 9.54353 14.1728 9.52212H45.7435C46.011 9.5247 46.2675 9.62876 46.461 9.81319ZM29.9806 37.2177L35.9225 17.3807H19.2852L13.3656 37.2177H29.9806ZM76.5968 10.149C76.7045 10.274 76.8391 10.3731 76.9905 10.439C77.142 10.5049 77.3062 10.5359 77.4713 10.5296H81.5746C81.7309 10.5312 81.8848 10.4929 82.0222 10.4185C82.1595 10.344 82.2755 10.2359 82.3594 10.1042C82.4322 10.0014 82.4837 9.88499 82.5106 9.76191C82.5376 9.63884 82.5395 9.51163 82.5162 9.3878L81.7091 3.47702C81.6323 3.20346 81.4942 2.95086 81.3056 2.73817C81.1977 2.61318 81.0632 2.51406 80.9118 2.44816C80.7604 2.38226 80.596 2.3513 80.431 2.35756H76.3278C76.1715 2.35604 76.0174 2.3943 75.8801 2.46873C75.7428 2.54316 75.6267 2.65131 75.543 2.78297C75.386 3.09641 75.3187 3.29791 75.386 3.47702L76.2156 9.3878C76.2582 9.6756 76.3918 9.94229 76.5968 10.149ZM89.6243 3.43224C89.5473 3.15867 89.4093 2.90606 89.2206 2.69339C89.1174 2.56886 88.9868 2.46976 88.839 2.40375C88.6913 2.33775 88.5303 2.30661 88.3686 2.31278H84.2428C84.0892 2.30841 83.9371 2.34564 83.8029 2.42052C83.6687 2.49541 83.5573 2.60519 83.4805 2.73817C83.3313 2.9368 83.2667 3.1863 83.3011 3.43224L84.1307 9.343C84.1828 9.62778 84.3149 9.89183 84.5119 10.1042C84.6216 10.2268 84.7565 10.3242 84.9075 10.3899C85.0585 10.4556 85.2217 10.488 85.3863 10.4848H89.5121C89.6655 10.4869 89.8164 10.4487 89.9502 10.374C90.0841 10.2993 90.1959 10.1909 90.2745 10.0595C90.3525 9.9593 90.407 9.84293 90.4342 9.71897C90.4614 9.59501 90.4604 9.46656 90.4314 9.343L89.6243 3.43224ZM72.9868 12.388L72.5831 9.47734H52.6945C52.3823 9.49453 52.0802 9.59505 51.82 9.7684C51.6549 9.85833 51.5111 9.98297 51.3988 10.1337C51.2867 10.2845 51.2086 10.4577 51.1698 10.6416L49.5105 16.1941C49.4443 16.3329 49.4216 16.4885 49.4456 16.6404C49.4698 16.7923 49.5392 16.9332 49.645 17.0449C49.8341 17.2224 50.0809 17.3259 50.3402 17.336H74.5116L68.5696 37.1729H44.4655C44.1547 37.18 43.852 37.273 43.5911 37.4415C43.274 37.6427 43.0423 37.9536 42.9408 38.3147L41.2591 43.8673C41.2042 44.0098 41.1898 44.1646 41.2175 44.3147C41.2453 44.4649 41.3139 44.6044 41.416 44.718C41.5992 44.9074 41.8479 45.0195 42.1111 45.0315H73.7715C74.099 45.0034 74.4146 44.8958 74.6908 44.718C75.0219 44.5323 75.2703 44.2284 75.386 43.8673L84.4894 13.5074H74.2424C74.0798 13.5106 73.9184 13.4805 73.768 13.4189C73.6176 13.3572 73.4815 13.2654 73.368 13.1492C73.1826 12.9461 73.0515 12.6997 72.9868 12.4327V12.388Z" fill="white"/>
</g>
<defs>
<clipPath id="clip0_2660_10674">
<rect width="105.952" height="58.862" fill="white" transform="translate(0.318359 0.252441)"/>
</clipPath>
</defs>
</svg>
