<svg width="185" height="60" viewBox="0 0 185 60" fill="none" xmlns="http://www.w3.org/2000/svg">
<g id="Logo" clip-path="url(#clip0_2660_10688)">
<path id="Vector" d="M130.982 55.0295C132.099 55.0295 132.759 54.1833 132.759 52.8604C132.759 51.4889 132.05 50.6913 131.005 50.6913C130.408 50.6913 129.993 50.9562 129.682 51.3771H129.668V49.2095H129.02V54.9088H129.668V54.3673H129.682C130.018 54.8293 130.424 55.0295 130.982 55.0295ZM130.935 54.4864C130.058 54.4864 129.627 53.7934 129.627 52.8677C129.627 51.976 130.042 51.2417 130.942 51.2417C131.724 51.2417 132.099 51.9436 132.099 52.8677C132.099 53.8007 131.724 54.4864 130.935 54.4864ZM133.853 56.2729C134.355 56.2729 134.674 56.0963 135.008 55.2428L136.771 50.787H136.085L135.143 53.3548C135.017 53.6977 134.873 54.1598 134.873 54.1598H134.858C134.858 54.1598 134.705 53.6977 134.578 53.3548L133.606 50.787H132.904L134.514 54.7896L134.355 55.1957C134.196 55.5945 134.012 55.699 133.741 55.699C133.59 55.7067 133.439 55.6763 133.302 55.6107H133.27V56.1846C133.447 56.2567 133.606 56.2729 133.853 56.2729ZM138.423 54.9088H139.508V49.2095H138.423V54.9088ZM142.16 55.0295C143.427 55.0295 144.296 54.0877 144.296 52.8677C144.296 51.6478 143.428 50.7075 142.16 50.7075C140.893 50.7075 140.023 51.6493 140.023 52.8677C140.023 54.0891 140.891 55.0295 142.16 55.0295ZM142.16 54.1995C141.49 54.1995 141.124 53.6653 141.124 52.8677C141.124 52.0716 141.49 51.5286 142.16 51.5286C142.822 51.5286 143.196 52.0716 143.196 52.8677C143.196 53.6653 142.822 54.1995 142.16 54.1995ZM146.602 56.3038C147.209 56.3038 147.734 56.1611 148.077 55.8417C148.38 55.5622 148.564 55.1722 148.564 54.5983V50.8193H147.519V51.2505H147.503C147.256 50.9076 146.882 50.7075 146.37 50.7075C145.335 50.7075 144.601 51.4889 144.601 52.7088C144.601 53.9449 145.494 54.6616 146.404 54.6616C146.922 54.6616 147.232 54.4556 147.471 54.1833H147.496V54.6307C147.496 55.1884 147.201 55.4842 146.586 55.4842C146.084 55.4842 145.853 55.284 145.765 55.028H144.689C144.8 55.8256 145.485 56.3038 146.602 56.3038ZM146.588 53.7933C146.028 53.7933 145.661 53.3872 145.661 52.6926C145.661 52.0069 146.028 51.5772 146.579 51.5772C147.232 51.5772 147.551 52.0864 147.551 52.6853C147.551 53.2916 147.272 53.7933 146.586 53.7933H146.588ZM151.199 55.0295C152.466 55.0295 153.336 54.0877 153.336 52.8677C153.336 51.6478 152.466 50.7075 151.199 50.7075C149.931 50.7075 149.063 51.6493 149.063 52.8677C149.063 54.0891 149.931 55.0295 151.199 55.0295ZM151.199 54.1995C150.53 54.1995 150.162 53.6653 150.162 52.8677C150.162 52.0716 150.53 51.5286 151.199 51.5286C151.86 51.5286 152.235 52.0716 152.235 52.8677C152.235 53.6653 151.86 54.1995 151.199 54.1995ZM153.839 54.9088H154.924V50.8193H153.839V54.9088ZM153.839 50.1822H154.924V49.2095H153.839V50.1822ZM155.623 56.2479H156.707V54.4482H156.722C156.955 54.7999 157.328 55.0309 157.902 55.0309C158.955 55.0309 159.673 54.1921 159.673 52.8692C159.673 51.5934 158.98 50.709 157.895 50.709C157.659 50.7051 157.425 50.76 157.215 50.8686C157.005 50.9772 156.825 51.1363 156.691 51.3314H156.668V50.8208H155.623V56.2508V56.2479ZM157.671 54.1289C157.025 54.1289 156.682 53.6418 156.682 52.9001C156.682 52.1673 156.955 51.5846 157.632 51.5846C158.301 51.5846 158.572 52.1261 158.572 52.9001C158.572 53.6742 158.222 54.1289 157.671 54.1289ZM161.836 55.0295C162.856 55.0295 163.558 54.535 163.558 53.7139C163.558 52.7574 162.8 52.5661 162.114 52.4219C161.533 52.3027 160.991 52.2703 160.991 51.9201C160.991 51.6258 161.269 51.4639 161.692 51.4639C162.155 51.4639 162.433 51.6258 162.482 52.0628H163.462C163.382 51.2417 162.785 50.709 161.708 50.709C160.775 50.709 160.042 51.1298 160.042 52.0157C160.042 52.9075 160.759 53.1076 161.493 53.2518C162.051 53.3622 162.569 53.4019 162.569 53.7933C162.569 54.0803 162.298 54.2642 161.82 54.2642C161.334 54.2642 160.999 54.0568 160.926 53.5859H159.923C159.986 54.4541 160.648 55.0295 161.836 55.0295ZM167.675 54.9088V50.8193H166.59V53.1797C166.59 53.7212 166.278 54.1038 165.769 54.1038C165.307 54.1038 165.091 53.8404 165.091 53.3622V50.8193H164.015V53.5461C164.015 54.4394 164.526 55.0206 165.434 55.0206C166.008 55.0206 166.327 54.8058 166.607 54.432H166.63V54.9088H167.675ZM168.375 54.9088H169.46V52.5352C169.46 51.9922 169.754 51.6419 170.193 51.6419C170.592 51.6419 170.823 51.8818 170.823 52.3439V54.9103H171.907V52.5352C171.907 51.9922 172.187 51.6419 172.641 51.6419C173.04 51.6419 173.271 51.8818 173.271 52.3439V54.9103H174.356V52.1599C174.356 51.2667 173.869 50.709 173.008 50.709C172.49 50.709 172.059 50.9797 171.781 51.4271H171.764C171.666 51.2099 171.507 51.0262 171.305 50.8986C171.104 50.7709 170.87 50.7051 170.631 50.709C170.392 50.703 170.156 50.7613 169.947 50.8777C169.738 50.9942 169.564 51.1646 169.444 51.3712H169.42V50.8208H168.375V54.9117V54.9088Z" fill="#E5708C"/>
<path id="Vector_2" d="M174.57 3.41435C174.57 1.67351 175.981 0.260821 177.722 0.260821H179.825C180.661 0.260821 181.463 0.593067 182.054 1.18447C182.646 1.77587 182.978 2.57798 182.978 3.41435C182.978 4.25072 182.646 5.05283 182.054 5.64424C181.463 6.23564 180.661 6.56788 179.825 6.56788H177.722C177.308 6.56788 176.898 6.48631 176.515 6.32781C176.133 6.16931 175.785 5.937 175.492 5.64415C175.2 5.3513 174.967 5.00364 174.809 4.62105C174.651 4.23845 174.569 3.82841 174.57 3.41435ZM86.2899 21.2804C86.2899 32.888 76.8808 42.2986 65.2717 42.2986C53.6641 42.2986 44.2536 32.888 44.2536 21.2804C44.2536 9.66991 53.6641 0.262292 65.2717 0.262292C76.8808 0.262292 86.2899 9.66991 86.2899 21.2804ZM40.1538 21.176C41.3163 21.176 42.267 22.1178 42.1507 23.2744C41.7534 27.2326 40.241 30.9968 37.7892 34.1295C35.3373 37.2622 32.0468 39.6348 28.3 40.9715C24.5532 42.3082 20.504 42.5541 16.623 41.6807C12.742 40.8073 9.1885 38.8504 6.37556 36.0374C3.56262 33.2245 1.60573 29.671 0.732325 25.79C-0.141085 21.909 0.10485 17.8598 1.44155 14.113C2.77824 10.3662 5.15081 7.07565 8.28351 4.62383C11.4162 2.17201 15.1804 0.659574 19.1386 0.262292C20.2938 0.144568 21.237 1.09813 21.237 2.25771V19.0731C21.237 20.2356 22.1788 21.176 23.3399 21.176H40.1538ZM115.716 46.5028C117.389 46.5028 118.993 47.1671 120.175 48.3497C121.358 49.5322 122.022 51.1361 122.022 52.8084C122.022 54.4808 121.358 56.0846 120.175 57.2671C118.993 58.4497 117.389 59.114 115.716 59.114H105.208C103.536 59.114 101.932 58.4497 100.749 57.2671C99.5668 56.0846 98.9025 54.4808 98.9025 52.8084C98.9025 51.1361 99.5668 49.5322 100.749 48.3497C101.932 47.1671 103.536 46.5028 105.208 46.5028H115.716ZM109.411 42.2986C121.02 42.2986 130.43 32.888 130.43 21.2804C130.435 17.7148 129.529 14.207 127.798 11.09L131.271 7.6171C131.671 7.21689 131.988 6.7418 132.204 6.21897C132.421 5.69614 132.532 5.1358 132.532 4.56995C132.532 4.0041 132.42 3.44382 132.204 2.92109C131.987 2.39836 131.669 1.92343 131.269 1.52341C130.869 1.12339 130.394 0.806114 129.871 0.589699C129.348 0.373283 128.788 0.261966 128.222 0.262102C127.656 0.262239 127.096 0.373827 126.573 0.590495C126.051 0.807163 125.576 1.12467 125.176 1.52488L122.144 4.55628C118.487 1.76314 114.011 0.253416 109.409 0.260821C97.8032 0.262292 88.3942 9.66991 88.3942 21.2804C88.3942 32.888 97.8033 42.2986 109.411 42.2986ZM174.57 21.2804C174.57 32.888 165.159 42.2986 153.55 42.2986C141.942 42.2986 132.532 32.888 132.532 21.2804C132.532 9.66991 141.942 0.262292 153.55 0.262292C165.159 0.262292 174.57 9.67138 174.57 21.2804Z" fill="white"/>
</g>
<defs>
<clipPath id="clip0_2660_10688">
<rect width="183.944" height="58.862" fill="white" transform="translate(0.219482 0.252441)"/>
</clipPath>
</defs>
</svg>
