<svg width="82" height="57" viewBox="0 0 82 57" fill="none" xmlns="http://www.w3.org/2000/svg">
<g id="Logo" clip-path="url(#clip0_2660_10684)">
<path id="Vector" fill-rule="evenodd" clip-rule="evenodd" d="M2.84151 17.6702C0.754115 22.8259 0.207956 28.499 1.27218 33.9724C2.33627 39.4456 4.96296 44.4731 8.81987 48.419C12.6768 52.365 17.591 55.0523 22.9406 56.141C28.2906 57.2297 33.8357 56.6708 38.8752 54.5353C43.9145 52.3998 48.2217 48.7832 51.2521 44.1434C51.3329 44.0197 51.4127 43.8953 51.4915 43.7704C51.5471 43.6823 51.6023 43.5936 51.6572 43.5047V56.6831H53.7785C59.2332 56.6831 64.5653 55.0283 69.1005 51.9278C73.6359 48.8278 77.1707 44.4209 79.258 39.2652C81.3455 34.1096 81.8917 28.4365 80.8274 22.9632C79.7633 17.49 77.1368 12.4625 73.2798 8.51655C69.4227 4.5705 64.5086 1.88331 59.159 0.794662C53.809 -0.294119 48.2639 0.264645 43.2244 2.40021C38.1851 4.53579 33.8779 8.15225 30.8475 12.7922C30.7097 13.0034 30.5747 13.2164 30.4425 13.4308V0.252458H28.3211C22.8664 0.252458 17.5344 1.90729 12.9991 5.00765C8.4638 8.10787 4.92892 12.5145 2.84151 17.6702ZM26.1997 28.4678V4.6921C22.333 5.05322 18.6034 6.39728 15.3563 8.61682C11.5187 11.2402 8.52776 14.969 6.76148 19.3314C4.9952 23.6939 4.53308 28.4942 5.43351 33.1255C6.33394 37.7567 8.55652 42.0107 11.82 45.3496C15.0836 48.6885 19.2417 50.9622 23.7685 51.8835C28.2953 52.8047 32.9873 52.3319 37.2514 50.5249C41.3442 48.7905 44.8663 45.9016 47.4101 42.2006C45.4822 43.1369 43.3258 43.6607 41.0498 43.6607C32.8484 43.6607 26.1997 36.8584 26.1997 28.4678ZM55.8999 52.2434V28.4678C55.8999 20.077 49.2512 13.2749 41.0498 13.2749C38.7738 13.2749 36.6174 13.7987 34.6895 14.735C37.2333 11.0339 40.7554 8.14496 44.8482 6.41064C49.1123 4.60361 53.8043 4.13082 58.3311 5.05203C62.8578 5.97322 67.016 8.2471 70.2797 11.5859C73.5432 14.9248 75.7657 19.1789 76.666 23.81C77.5665 28.4414 77.1044 33.2416 75.3381 37.6041C73.572 41.9666 70.581 45.6955 66.7433 48.3187C63.4963 50.5382 59.7666 51.8823 55.8999 52.2434ZM40.8376 39.3178C35.1478 39.2035 30.5563 34.5059 30.4447 28.6848H34.4577C37.6235 29.4231 40.1157 31.9725 40.8376 35.2114V39.3178ZM41.2618 39.3178C46.9516 39.2035 51.5433 34.5059 51.6549 28.6848H47.6419C44.4758 29.4231 41.9835 31.9729 41.2618 35.2122V39.3178ZM51.6549 28.2507C51.5433 22.4297 46.9516 17.732 41.2618 17.6178V21.7233C41.9835 24.9624 44.4755 27.5123 47.6413 28.2507H51.6549ZM40.8376 17.6178C35.148 17.732 30.5563 22.4297 30.4447 28.2507H34.4583C37.6239 27.5123 40.1159 24.9628 40.8376 21.7241V17.6178Z" fill="white"/>
</g>
<defs>
<clipPath id="clip0_2660_10684">
<rect width="80.6152" height="56.4307" fill="white" transform="translate(0.742188 0.252441)"/>
</clipPath>
</defs>
</svg>
