<svg width="60" height="60" viewBox="0 0 60 60" fill="none" xmlns="http://www.w3.org/2000/svg">
<g id="Logo" clip-path="url(#clip0_2660_10686)">
<path id="Vector" fill-rule="evenodd" clip-rule="evenodd" d="M15.0729 0.252441C23.2 0.252441 29.7884 6.84079 29.7884 14.9679V0.252441H44.5039C52.631 0.252441 59.2194 6.84079 59.2194 14.9679C59.2194 23.095 52.631 29.6834 44.5039 29.6834C52.631 29.6834 59.2194 36.2719 59.2194 44.3989C59.2194 48.4344 57.595 52.0904 54.9644 54.7489L54.9094 54.8044L54.8605 54.853C52.2015 57.4874 48.5427 59.1144 44.5039 59.1144C40.4926 59.1144 36.8561 57.5094 34.2016 54.9065C34.1672 54.8727 34.1327 54.8386 34.0984 54.8044C34.0662 54.7722 34.0341 54.7398 34.0022 54.7073C31.3959 52.0523 29.7884 48.4133 29.7884 44.3989C29.7884 52.526 23.2 59.1144 15.0729 59.1144C6.94577 59.1144 0.357422 52.526 0.357422 44.3989V29.6834H15.0729C6.94577 29.6834 0.357422 23.095 0.357422 14.9679C0.357422 6.84079 6.94577 0.252441 15.0729 0.252441ZM26.8453 14.9679C26.8453 21.4697 21.5747 26.7403 15.0729 26.7403V3.19554C21.5747 3.19554 26.8453 8.46622 26.8453 14.9679ZM56.2763 44.3989C56.2763 37.8972 51.0057 32.6265 44.5039 32.6265C38.0022 32.6265 32.7315 37.8972 32.7315 44.3989H56.2763ZM3.30052 32.6265V44.3989C3.30052 50.9007 8.5712 56.1713 15.0729 56.1713C21.5747 56.1713 26.8453 50.9007 26.8453 44.3989V32.6265H3.30052ZM32.7315 26.7403V3.19554H44.5039C51.0057 3.19554 56.2763 8.46622 56.2763 14.9679C56.2763 21.4697 51.0057 26.7403 44.5039 26.7403H32.7315Z" fill="white"/>
</g>
<defs>
<clipPath id="clip0_2660_10686">
<rect width="58.862" height="58.862" fill="white" transform="translate(0.357422 0.252441)"/>
</clipPath>
</defs>
</svg>
