<svg width="124" height="60" viewBox="0 0 124 60" fill="none" xmlns="http://www.w3.org/2000/svg">
<g id="Logo" clip-path="url(#clip0_2660_10677)">
<path id="Vector" d="M112.199 57.5623V57.7018C112.164 57.7806 112.123 57.8566 112.075 57.9282L111.898 58.1373L111.721 58.2942C111.536 58.4487 111.326 58.5723 111.1 58.66H111.012C110.792 58.7464 110.558 58.7936 110.321 58.7995H103.235C103.046 58.8056 102.858 58.7713 102.683 58.6992C102.509 58.6269 102.352 58.5185 102.225 58.3813L94.4831 50.5054L89.3986 58.1025L89.2923 58.2418L89.1152 58.4509H89.0266H88.938H88.8139C88.6719 58.5701 88.5102 58.6644 88.3357 58.7298L88.1585 58.8169C87.9363 58.8965 87.7036 58.9435 87.4676 58.9563H80.3812C80.1923 58.9623 80.0041 58.9281 79.8298 58.8559C79.6554 58.7838 79.4992 58.6753 79.3714 58.538L76.7318 55.5586L67.4486 58.8169C67.2316 58.913 66.9957 58.9605 66.7577 58.9563C66.4361 58.9649 66.1217 58.8597 65.872 58.66L65.7302 58.5207L61.3012 53.5373C61.1241 54.1297 60.9823 54.7222 60.7875 55.2797L60.6813 55.5237C60.6507 55.6044 60.6089 55.6806 60.5572 55.7502L60.451 55.8895L60.256 56.0986L60.008 56.3253C59.871 56.4286 59.7224 56.5163 59.5651 56.5866L59.0514 57.2138C58.8077 57.3037 58.5499 57.3508 58.2896 57.3533H52.4789C52.2909 57.3627 52.1033 57.3317 51.9289 57.2625C51.7546 57.1932 51.5975 57.0875 51.4691 56.9524L49.5558 54.7919L48.723 57.51C48.7033 57.6026 48.6672 57.691 48.6168 57.7715L48.5104 57.998L48.4041 58.1373L48.2271 58.3464C48.1532 58.4308 48.0699 58.5067 47.979 58.5729C47.8317 58.6703 47.6778 58.7576 47.5184 58.8343L47.2881 58.9563C47.0509 59.0497 46.7993 59.1028 46.5439 59.1131H36.0207C35.8288 59.1217 35.6373 59.0887 35.4598 59.0164C35.2822 58.9442 35.1229 58.8344 34.9933 58.6949L33.452 56.9524H27.8716L27.7475 57.3707C27.7261 57.4603 27.6963 57.5477 27.659 57.632C27.6108 57.7038 27.5693 57.7796 27.5349 57.8585L27.4287 57.998L27.2515 58.2071C27.1776 58.2914 27.0945 58.3673 27.0035 58.4336C26.8562 58.5308 26.7023 58.6182 26.5428 58.6949L26.3125 58.8169C26.0754 58.9103 25.8238 58.9633 25.5685 58.9738H18.9959C18.8068 58.9798 18.6188 58.9455 18.4444 58.8734C18.2702 58.8011 18.1137 58.6927 17.9862 58.5555L15.9488 56.2729H9.87224C9.68441 56.2823 9.4968 56.2514 9.32241 56.1822C9.148 56.1129 8.99104 56.0071 8.86247 55.8722L0.589162 47.0554C0.655416 47.1212 0.733512 47.1744 0.819476 47.2122C0.666249 47.1228 0.538335 46.997 0.447459 46.8463C0.330863 46.6225 0.27002 46.3746 0.27002 46.1232C0.27002 45.8717 0.330863 45.6239 0.447459 45.4C5.12656 35.9468 8.96169 26.1114 11.9096 16.0051V15.8831L11.325 15.2209C11.325 15.2209 11.4136 15.2209 11.4667 15.3429C11.2707 15.1659 11.1324 14.9357 11.0693 14.6814C11.0063 14.427 11.0212 14.16 11.1124 13.9141L13.0434 7.53679C13.2046 7.05552 13.5082 6.63255 13.9154 6.32211C14.3226 6.01168 14.8147 5.82791 15.3287 5.79434H22.4151L23.5666 1.9958C23.7299 1.51577 24.0341 1.09409 24.4408 0.783973C24.8476 0.473854 25.3386 0.289203 25.8519 0.253365H32.4777C32.6746 0.245823 32.8706 0.284571 33.0492 0.366388C33.228 0.448205 33.3842 0.570742 33.5051 0.723832L35.7728 3.28523L35.95 2.81476C36.1101 2.32961 36.4159 1.90351 36.8269 1.5925C37.238 1.28149 37.7352 1.10014 38.2531 1.07232H61.6556C61.8519 1.06886 62.0466 1.10943 62.2246 1.19095C62.4025 1.27246 62.5594 1.39278 62.6832 1.54278L69.7694 9.57545L69.6455 2.88447C69.6554 2.58972 69.7264 2.30006 69.8543 2.03336C69.9824 1.76665 70.1644 1.52853 70.3895 1.33367C70.8176 0.896133 71.4023 0.639896 72.0194 0.61929H79.1057C79.3327 0.612418 79.5576 0.665324 79.757 0.77254C79.9562 0.879756 80.1228 1.03737 80.2395 1.22913C80.2087 1.15914 80.1669 1.09443 80.1154 1.03746L85.4302 6.97919L86.3338 3.99964C86.4906 3.51585 86.7932 3.0903 87.2013 2.77918C87.6093 2.46808 88.1036 2.28606 88.6191 2.25719H114.484C114.682 2.24895 114.879 2.28551 115.06 2.36404C115.242 2.44259 115.402 2.56102 115.529 2.71021L123.608 11.8232L123.714 11.9452C123.801 12.0763 123.855 12.2254 123.874 12.3808C123.874 12.3808 123.874 12.3808 123.874 12.4679C123.882 12.5955 123.882 12.7236 123.874 12.8512C123.88 12.9499 123.88 13.0488 123.874 13.1475L115.742 39.7895L115.636 40.0508L115.512 40.2773C115.512 40.2773 115.512 40.3644 115.405 40.4166L115.228 40.6257L114.962 40.8524C114.821 40.9568 114.661 41.0266 114.52 41.1137C114.378 41.2008 114.36 41.2182 114.289 41.2357C114.049 41.3391 113.79 41.3926 113.528 41.3924H109.984L111.384 42.9606V43.0826C111.474 43.2439 111.528 43.422 111.543 43.6053L112.323 56.7433V57.2138C112.323 57.2138 112.323 57.2138 112.323 57.3358C112.323 57.4578 112.199 57.51 112.199 57.5623Z" fill="#191B1D"/>
<path id="Vector_2" d="M2.18408 45.7315C6.91485 36.1698 10.7973 26.2242 13.788 16.0054H19.2975C16.3861 26.1995 12.6295 36.1414 8.06575 45.7315H2.18408ZM37.7929 2.7803L35.8619 9.08796H59.2291L61.1601 2.7803H37.7929ZM19.8645 46.3414H26.4547C30.5882 39.4942 33.8657 32.181 36.2161 24.5609H30.3523C27.9174 32.2497 24.3735 39.5554 19.8291 46.2543L19.8645 46.3414ZM31.362 15.3956L29.4133 21.8078H40.5919L34.4092 42.1072H30.3699L28.4212 48.4671H38.9444L47.0583 21.8078H57.9181L59.8845 15.3956H31.362ZM26.4016 20.4662L28.3858 13.9668H32.4782L34.4268 7.58945H30.3699L32.1415 2.06592H25.3918L23.6202 7.58945H14.8509L12.9022 13.9668H21.76L11.3077 48.502H17.8803L24.0454 28.2548L26.3661 30.5026L28.7224 22.7662L26.4016 20.4662ZM48.0148 24.77C48.1845 32.1491 47.1559 39.5076 44.9679 46.5679H50.7964C52.9969 39.4981 54.1895 32.1622 54.3394 24.77H48.0148ZM78.7164 2.30986H71.5415L71.7364 13.4441H78.929L78.7164 2.30986ZM63.7111 16.929L61.6383 23.7593H66.5811L59.0519 48.502L71.7542 44.0414L74.075 36.392L69.0081 38.1345L75.4744 16.9115L63.7111 16.929ZM79.8149 48.4671L88.5842 35.3466H81.4979L72.6399 48.4671H79.8149ZM88.2121 3.96517L80.0452 30.729H105.91L114.059 3.96517H88.2121ZM101.18 24.0556H88.8676L92.9423 10.6213H105.343L101.251 24.0556M94.4835 35.2942L95.2631 48.4149H102.349L101.552 35.2942H94.4835Z" fill="white"/>
</g>
<defs>
<clipPath id="clip0_2660_10677">
<rect width="123.61" height="58.862" fill="white" transform="translate(0.27002 0.252441)"/>
</clipPath>
</defs>
</svg>
