<svg width="60" height="52" viewBox="0 0 60 52" fill="none" xmlns="http://www.w3.org/2000/svg">
<g id="Logo" clip-path="url(#clip0_2660_10680)">
<path id="Vector" fill-rule="evenodd" clip-rule="evenodd" d="M37.6705 44.3986C39.6029 44.3986 41.5165 44.0179 43.3018 43.2785C45.0873 42.5389 46.7095 41.4551 48.076 40.0886C49.4425 38.7221 50.5263 37.0999 51.2659 35.3144C52.0053 33.5292 52.386 31.6156 52.386 29.6831C52.386 23.829 50.0604 18.2144 45.9209 14.075C41.7814 9.93543 36.1669 7.60986 30.3128 7.60986C24.4586 7.60986 18.8441 9.93543 14.7046 14.075C10.5651 18.2144 8.2395 23.829 8.2395 29.6831C8.2395 31.6156 8.62013 33.5292 9.35965 35.3144C10.0992 37.0999 11.1831 38.7221 12.5496 40.0886C13.916 41.4551 15.5383 42.5389 17.3237 43.2785C19.109 44.0179 21.0226 44.3986 22.955 44.3986H37.6705ZM30.3128 13.4961C26.0197 13.4961 21.9024 15.2014 18.8667 18.2371C15.8311 21.2728 14.1257 25.39 14.1257 29.6831C14.1257 30.8425 14.3541 31.9907 14.7978 33.0619C15.2415 34.1332 15.8919 35.1065 16.7118 35.9263C17.5316 36.7463 18.5049 37.3965 19.5762 37.8404C20.6475 38.284 21.7956 38.5124 22.955 38.5124H37.6705C38.8299 38.5124 39.978 38.284 41.0493 37.8404C42.1206 37.3965 43.0939 36.7463 43.9137 35.9263C44.7337 35.1065 45.3839 34.1332 45.8277 33.0619C46.2714 31.9907 46.4998 30.8425 46.4998 29.6831C46.4998 25.39 44.7944 21.2728 41.7588 18.2371C38.7231 15.2014 34.6059 13.4961 30.3128 13.4961Z" fill="white"/>
<path id="Vector_2" fill-rule="evenodd" clip-rule="evenodd" d="M20.0103 51.7567C17.498 51.7567 15.0105 51.1857 12.6895 50.0765C10.3686 48.9672 8.25966 47.3413 6.48322 45.2916C4.70685 43.2419 3.29772 40.8087 2.33632 38.1306C1.37495 35.4525 0.880127 32.5821 0.880127 29.6834C0.880127 21.8779 3.98089 14.392 9.50028 8.87258C15.0196 3.3532 22.5056 0.252441 30.3111 0.252441C38.1167 0.252441 45.6026 3.3532 51.1219 8.87258C56.6414 14.392 59.7421 21.8779 59.7421 29.6834C59.7421 32.5821 59.2472 35.4525 58.2859 38.1306C57.3245 40.8087 55.9154 43.2419 54.1391 45.2916C52.3626 47.3413 50.2537 48.9672 47.9328 50.0765C45.6117 51.1857 43.1242 51.7567 40.612 51.7567H20.0103ZM13.6624 13.0348C18.078 8.61925 24.0666 6.13864 30.3111 6.13864C36.5557 6.13864 42.5443 8.61925 46.9598 13.0348C51.3753 17.4503 53.8559 23.4389 53.8559 29.6834C53.8559 31.9171 53.4739 34.1138 52.7459 36.1418C52.018 38.1696 50.9682 39.9628 49.6909 41.4366C48.415 42.9087 46.9463 44.024 45.3945 44.7657C43.8466 45.5055 42.2244 45.8705 40.612 45.8705H20.0103C18.3979 45.8705 16.7757 45.5055 15.2277 44.7657C13.676 44.024 12.2072 42.9087 10.9314 41.4366C9.65413 39.9628 8.60434 38.1696 7.87636 36.1418C7.14836 34.1138 6.76633 31.9171 6.76633 29.6834C6.76633 23.4389 9.24693 17.4503 13.6624 13.0348Z" fill="white"/>
<path id="Vector_3" d="M37.6682 37.0415H30.304C29.8096 37.0411 29.3188 36.9907 28.8389 36.8929C27.9089 36.7031 27.0196 36.334 26.2228 35.8014C25.0127 34.993 24.0696 33.844 23.5128 32.4994C23.3322 32.0634 23.1948 31.6133 23.1013 31.1553C22.9065 30.201 22.9022 29.2127 23.0941 28.2483C23.378 26.821 24.0788 25.51 25.1078 24.4811C26.1367 23.452 27.4477 22.7513 28.875 22.4674C28.9197 22.4585 28.9643 22.4501 29.009 22.442C29.4403 22.3646 29.8759 22.326 30.3105 22.326C31.2721 22.326 32.2291 22.5145 33.1261 22.8861C34.4705 23.4429 35.6197 24.386 36.4281 25.5959C37.2368 26.806 37.6682 28.2285 37.6682 29.6838H31.782C31.782 29.3927 31.6958 29.1082 31.5341 28.8662C31.3723 28.6242 31.1425 28.4356 30.8736 28.3242C30.6048 28.2128 30.3089 28.1837 30.0234 28.2405C29.7379 28.2973 29.4757 28.4374 29.2699 28.6432C29.0641 28.849 28.924 29.1112 28.8672 29.3967C28.8104 29.6821 28.8395 29.9781 28.9509 30.2469C29.0623 30.5158 29.251 30.7456 29.4929 30.9074C29.735 31.0691 30.0194 31.1553 30.3105 31.1553H37.6682C37.8614 31.1553 38.0529 31.1172 38.2314 31.0433C38.4099 30.9693 38.572 30.861 38.7088 30.7243C38.8455 30.5876 38.9538 30.4254 39.0278 30.2469C39.1017 30.0684 39.1398 29.877 39.1398 29.6838C39.1398 27.3421 38.2096 25.0964 36.5537 23.4406C34.8979 21.7846 32.6521 20.8545 30.3105 20.8545C30.0565 20.8545 29.8037 20.8654 29.5526 20.887C28.9356 20.9401 28.329 21.0578 27.7426 21.2362C27.1656 21.4114 26.6081 21.6456 26.0787 21.9346C25.4725 22.2657 24.9033 22.6689 24.3845 23.1386C24.2765 23.2363 24.1707 23.337 24.0673 23.4406C23.3428 24.1649 22.7573 25.0023 22.3278 25.9111C22.1131 26.3656 21.9372 26.8378 21.8027 27.3228C21.6488 27.8773 21.5487 28.4482 21.5056 29.028C21.4894 29.2455 21.4812 29.4642 21.4812 29.6838C21.4812 30.8376 21.7073 31.9862 22.1532 33.0626C22.8216 34.676 23.9532 36.0548 25.4052 37.025C25.4134 37.0306 25.4217 37.0361 25.4299 37.0415H22.9527C21.9865 37.0415 21.0297 36.8512 20.1371 36.4814C19.2444 36.1116 18.4333 35.5697 17.7501 34.8864C17.0668 34.2032 16.5248 33.3921 16.155 32.4994C15.7852 31.6068 15.595 30.65 15.595 29.6838C15.595 25.7809 17.1454 22.038 19.905 19.2783C22.6647 16.5187 26.4076 14.9683 30.3105 14.9683C34.2133 14.9683 37.9562 16.5187 40.716 19.2783C43.4755 22.038 45.026 25.7809 45.026 29.6838C45.026 30.65 44.8357 31.6068 44.4659 32.4994C44.0961 33.3921 43.5541 34.2032 42.8709 34.8864C42.1876 35.5697 41.3765 36.1116 40.4839 36.4814C39.5912 36.8512 38.6344 37.0415 37.6682 37.0415Z" fill="white"/>
</g>
<defs>
<clipPath id="clip0_2660_10680">
<rect width="58.862" height="51.5042" fill="white" transform="translate(0.880127 0.252441)"/>
</clipPath>
</defs>
</svg>
