<svg width="158" height="32" viewBox="0 0 158 32" fill="none" xmlns="http://www.w3.org/2000/svg">
<g id="Logo" clip-path="url(#clip0_2510_4635)">
<path id="Vector" fill-rule="evenodd" clip-rule="evenodd" d="M19.8775 9.53282C18.5984 8.67816 17.0946 8.22197 15.5562 8.22197V0.443848C18.633 0.443848 21.6406 1.35621 24.1988 3.06555C26.7571 4.77489 28.7509 7.20444 29.9284 10.047C31.1057 12.8895 31.4138 16.0174 30.8136 19.035C30.2133 22.0526 28.7318 24.8245 26.5561 27C24.3806 29.1756 21.6087 30.6572 18.5911 31.2574C15.5735 31.8577 12.4456 31.5496 9.6031 30.3722C6.76059 29.1947 4.33104 27.2009 2.6217 24.6427C0.912358 22.0845 0 19.0768 0 16.0001H7.77812C7.77812 17.5385 8.23431 19.0423 9.08897 20.3214C9.94363 21.6005 11.1584 22.5974 12.5797 23.1861C14.0009 23.7749 15.5649 23.9289 17.0737 23.6287C18.5825 23.3286 19.9684 22.5879 21.0562 21.5001C22.144 20.4122 22.8848 19.0263 23.1849 17.5175C23.485 16.0087 23.331 14.4448 22.7423 13.0236C22.1536 11.6023 21.1567 10.3875 19.8775 9.53282Z" fill="white"/>
<path id="Vector_2" fill-rule="evenodd" clip-rule="evenodd" d="M7.77812 0.443852C7.77812 1.46529 7.57694 2.47673 7.18605 3.42041C6.79516 4.36409 6.22223 5.22155 5.49996 5.94382C4.7777 6.66609 3.92025 7.23901 2.97656 7.6299C2.03287 8.02079 1.02143 8.22197 3.3999e-07 8.22197L0 16.0001C2.04287 16.0001 4.06574 15.5977 5.95312 14.816C7.8405 14.0342 9.55542 12.8883 10.9999 11.4438C12.4444 9.99928 13.5903 8.28435 14.3721 6.39697C15.1539 4.50959 15.5562 2.48672 15.5562 0.443848L7.77812 0.443852Z" fill="white"/>
<path id="Vector_3" d="M97.7095 11.6855H93.9355V23.6734H97.7095V11.6855Z" fill="white"/>
<path id="Vector_4" d="M94.353 9.44014C94.7473 9.8348 95.2404 10.0321 95.8324 10.0321C96.4243 10.0321 96.9096 9.8348 97.2876 9.44014C97.6664 9.02907 97.8554 8.5357 97.8554 7.96016C97.8554 7.36818 97.6664 6.87483 97.2876 6.48018C96.9096 6.08551 96.4243 5.88818 95.8324 5.88818C95.2404 5.88818 94.7473 6.08551 94.353 6.48018C93.9742 6.87483 93.7852 7.36818 93.7852 7.96016C93.7852 8.5357 93.9742 9.02907 94.353 9.44014Z" fill="white"/>
<path id="Vector_5" d="M39.7891 23.6728V6.2583H43.6617V20.2689H51.3824V23.6728H39.7891Z" fill="white"/>
<path id="Vector_6" fill-rule="evenodd" clip-rule="evenodd" d="M58.3581 23.9441C57.1248 23.9441 56.0066 23.6728 55.0035 23.1302C54.0168 22.5711 53.2357 21.8146 52.6602 20.8608C52.0847 19.9071 51.7969 18.8382 51.7969 17.6542C51.7969 16.4702 52.0847 15.4096 52.6602 14.4722C53.2357 13.5349 54.0168 12.7949 55.0035 12.2523C55.9901 11.6931 57.1084 11.4136 58.3581 11.4136C59.6079 11.4136 60.7261 11.685 61.7127 12.2276C62.6994 12.7702 63.4805 13.5185 64.056 14.4722C64.6316 15.4096 64.9194 16.4702 64.9194 17.6542C64.9194 18.8382 64.6316 19.9071 64.056 20.8608C63.4805 21.8146 62.6994 22.5711 61.7127 23.1302C60.7261 23.6728 59.6079 23.9441 58.3581 23.9441ZM58.3581 20.5155C58.9008 20.5155 59.3777 20.4004 59.7888 20.1702C60.1999 19.9235 60.5123 19.5864 60.7261 19.1589C60.9563 18.7149 61.0714 18.2133 61.0714 17.6542C61.0714 17.0951 60.9563 16.61 60.7261 16.1989C60.4958 15.7713 60.1752 15.4425 59.7641 15.2123C59.3694 14.9655 58.9008 14.8422 58.3581 14.8422C57.8319 14.8422 57.3633 14.9655 56.9521 15.2123C56.5411 15.4425 56.2204 15.7713 55.9901 16.1989C55.7599 16.6265 55.6449 17.1198 55.6449 17.6789C55.6449 18.2215 55.7599 18.7149 55.9901 19.1589C56.2204 19.5864 56.5411 19.9235 56.9521 20.1702C57.3633 20.4004 57.8319 20.5155 58.3581 20.5155Z" fill="white"/>
<path id="Vector_7" fill-rule="evenodd" clip-rule="evenodd" d="M67.9083 28.3597C68.9113 28.8201 70.0706 29.0503 71.3862 29.0503C72.6689 29.0503 73.8118 28.7954 74.8148 28.2857C75.818 27.7759 76.6072 27.0688 77.1828 26.1644C77.7583 25.26 78.0465 24.1911 78.0465 22.9577V11.6852H74.3461V12.4906C74.0709 12.259 73.7584 12.0645 73.4089 11.9072C72.7675 11.5947 72.0357 11.4385 71.2136 11.4385C70.1118 11.4385 69.1333 11.7016 68.2783 12.2278C67.4231 12.7376 66.7489 13.4447 66.2556 14.3491C65.7622 15.2372 65.5156 16.2402 65.5156 17.3585C65.5156 18.4603 65.7622 19.4633 66.2556 20.3678C66.7489 21.2722 67.4231 21.9876 68.2783 22.5137C69.1333 23.0399 70.1118 23.3031 71.2136 23.3031C72.0193 23.3031 72.7511 23.1469 73.4089 22.8344C73.7275 22.6831 74.0152 22.5047 74.2722 22.2993V23.0564C74.2722 23.8951 74.0009 24.5446 73.4582 25.0051C72.932 25.4655 72.2002 25.6957 71.2629 25.6957C70.5065 25.6957 69.8569 25.5642 69.3142 25.301C68.788 25.038 68.3111 24.6515 67.8835 24.1417L65.5649 26.4604C66.1404 27.2826 66.9216 27.9157 67.9083 28.3597ZM73.2855 19.6031C72.9073 19.8333 72.4551 19.9484 71.9288 19.9484C71.4027 19.9484 70.9422 19.8333 70.5475 19.6031C70.1693 19.3729 69.8733 19.0604 69.6596 18.6658C69.4458 18.2547 69.3389 17.8189 69.3389 17.3585C69.3389 16.8651 69.4458 16.4211 69.6596 16.0265C69.8733 15.6318 70.1775 15.3194 70.5722 15.0891C70.9668 14.8589 71.4191 14.7438 71.9288 14.7438C72.4551 14.7438 72.9073 14.8589 73.2855 15.0891C73.6802 15.3194 73.9761 15.6318 74.1735 16.0265C74.3873 16.4211 74.4941 16.8651 74.4941 17.3585C74.4941 17.8518 74.3873 18.2957 74.1735 18.6904C73.9761 19.0687 73.6802 19.3729 73.2855 19.6031Z" fill="white"/>
<path id="Vector_8" fill-rule="evenodd" clip-rule="evenodd" d="M85.9874 23.9441C84.7538 23.9441 83.6353 23.6728 82.6327 23.1302C81.6457 22.5711 80.8647 21.8146 80.2892 20.8608C79.7136 19.9071 79.4258 18.8382 79.4258 17.6542C79.4258 16.4702 79.7136 15.4096 80.2892 14.4722C80.8647 13.5349 81.6457 12.7949 82.6327 12.2523C83.619 11.6931 84.7375 11.4136 85.9874 11.4136C87.2366 11.4136 88.3551 11.685 89.3413 12.2276C90.3284 12.7702 91.1093 13.5185 91.6849 14.4722C92.2605 15.4096 92.5483 16.4702 92.5483 17.6542C92.5483 18.8382 92.2605 19.9071 91.6849 20.8608C91.1093 21.8146 90.3284 22.5711 89.3413 23.1302C88.3551 23.6728 87.2366 23.9441 85.9874 23.9441ZM85.9874 20.5155C86.5295 20.5155 87.0063 20.4004 87.4178 20.1702C87.8285 19.9235 88.1412 19.5864 88.3551 19.1589C88.5853 18.7149 88.7004 18.2133 88.7004 17.6542C88.7004 17.0951 88.5853 16.61 88.3551 16.1989C88.1248 15.7713 87.8044 15.4425 87.3929 15.2123C86.9986 14.9655 86.5295 14.8422 85.9874 14.8422C85.4608 14.8422 84.9918 14.9655 84.5811 15.2123C84.1697 15.4425 83.8492 15.7713 83.619 16.1989C83.3887 16.6265 83.2736 17.1198 83.2736 17.6789C83.2736 18.2215 83.3887 18.7149 83.619 19.1589C83.8492 19.5864 84.1697 19.9235 84.5811 20.1702C84.9918 20.4004 85.4608 20.5155 85.9874 20.5155Z" fill="white"/>
<path id="Vector_9" fill-rule="evenodd" clip-rule="evenodd" d="M106.779 23.9197C105.974 23.9197 105.234 23.7635 104.559 23.4511C104.205 23.2867 103.884 23.0903 103.598 22.8621V28.7297H99.873V11.6852H103.647V12.5126C103.921 12.2886 104.225 12.095 104.559 11.9318C105.234 11.6029 105.974 11.4385 106.779 11.4385C107.914 11.4385 108.917 11.7099 109.789 12.2525C110.677 12.7951 111.368 13.5351 111.861 14.4725C112.371 15.4098 112.625 16.4787 112.625 17.6791C112.625 18.8796 112.371 19.9484 111.861 20.8858C111.368 21.8231 110.677 22.5631 109.789 23.1057C108.917 23.6484 107.914 23.9197 106.779 23.9197ZM106.089 20.5158C106.631 20.5158 107.1 20.3924 107.495 20.1458C107.906 19.8991 108.227 19.5619 108.457 19.1345C108.687 18.7069 108.802 18.2218 108.802 17.6791C108.802 17.12 108.687 16.6267 108.457 16.1992C108.227 15.7716 107.906 15.4427 107.495 15.2125C107.1 14.9658 106.64 14.8425 106.113 14.8425C105.588 14.8425 105.119 14.9658 104.708 15.2125C104.313 15.4427 104.001 15.7716 103.771 16.1992C103.54 16.6267 103.425 17.12 103.425 17.6791C103.425 18.2218 103.532 18.7069 103.746 19.1345C103.976 19.5619 104.296 19.8991 104.708 20.1458C105.119 20.3924 105.579 20.5158 106.089 20.5158Z" fill="white"/>
<path id="Vector_10" d="M116.319 23.6977C117.01 23.8786 117.708 23.969 118.415 23.969C119.912 23.969 121.096 23.6238 121.968 22.9331C122.855 22.2424 123.299 21.3133 123.299 20.1458C123.299 19.3893 123.16 18.7809 122.88 18.3205C122.601 17.8436 122.239 17.4653 121.795 17.1858C121.351 16.9063 120.882 16.6842 120.389 16.5198C119.895 16.3553 119.426 16.2156 118.983 16.1004C118.539 15.9853 118.177 15.8538 117.897 15.7058C117.618 15.5578 117.478 15.3604 117.478 15.1138C117.478 14.8836 117.585 14.7109 117.798 14.5958C118.012 14.4642 118.333 14.3985 118.761 14.3985C119.205 14.3985 119.657 14.4889 120.117 14.6698C120.594 14.8507 121.022 15.1632 121.4 15.6072L123.546 13.4365C123.004 12.7458 122.297 12.2278 121.425 11.8825C120.57 11.5208 119.633 11.3398 118.613 11.3398C117.643 11.3398 116.796 11.5043 116.072 11.8331C115.348 12.1621 114.789 12.6143 114.395 13.1898C114 13.7489 113.803 14.4149 113.803 15.1878C113.803 15.9114 113.943 16.5116 114.222 16.9885C114.501 17.4489 114.864 17.8107 115.307 18.0738C115.751 18.3369 116.22 18.5425 116.713 18.6904C117.207 18.8384 117.676 18.9782 118.12 19.1098C118.563 19.2249 118.925 19.3647 119.205 19.5291C119.501 19.6771 119.649 19.8991 119.649 20.1951C119.649 20.4253 119.525 20.6062 119.279 20.7378C119.048 20.8693 118.712 20.9351 118.267 20.9351C117.626 20.9351 117.034 20.82 116.492 20.5897C115.949 20.3431 115.48 20.006 115.085 19.5784L112.939 21.7491C113.351 22.193 113.844 22.5878 114.42 22.9331C115.012 23.2619 115.645 23.5168 116.319 23.6977Z" fill="white"/>
<path id="Vector_11" d="M130.182 23.9447C129.081 23.9447 128.102 23.7227 127.247 23.2788C126.408 22.8183 125.751 22.1934 125.274 21.4041C124.797 20.5983 124.559 19.6775 124.559 18.6414V11.6855H128.333V18.5921C128.333 19.0032 128.398 19.3568 128.53 19.6528C128.678 19.9488 128.892 20.179 129.171 20.3435C129.451 20.5079 129.788 20.5901 130.182 20.5901C130.741 20.5901 131.186 20.4174 131.515 20.0721C131.844 19.7103 132.008 19.217 132.008 18.5921V11.6855H135.782V18.6168C135.782 19.6692 135.544 20.5983 135.066 21.4041C134.589 22.1934 133.932 22.8183 133.093 23.2788C132.254 23.7227 131.284 23.9447 130.182 23.9447Z" fill="white"/>
<path id="Vector_12" d="M141.43 11.6852H137.656V23.6731H141.43V16.6678C141.43 16.2567 141.513 15.9114 141.677 15.6318C141.858 15.3523 142.097 15.1385 142.392 14.9905C142.689 14.826 143.025 14.7438 143.403 14.7438C143.946 14.7438 144.398 14.9165 144.76 15.2618C145.139 15.5907 145.328 16.0594 145.328 16.6678V23.6731H149.102V16.6678C149.102 16.2567 149.184 15.9114 149.348 15.6318C149.53 15.3523 149.768 15.1385 150.064 14.9905C150.359 14.826 150.697 14.7438 151.075 14.7438C151.618 14.7438 152.07 14.9165 152.432 15.2618C152.81 15.5907 152.999 16.0594 152.999 16.6678V23.6731H156.773V16.2485C156.773 15.2454 156.559 14.3903 156.132 13.6832C155.72 12.9596 155.153 12.4087 154.43 12.0305C153.723 11.6358 152.908 11.4385 151.987 11.4385C151.05 11.4385 150.203 11.6441 149.447 12.0552C148.956 12.3171 148.526 12.6551 148.158 13.0692C147.815 12.6361 147.398 12.2816 146.906 12.0058C146.249 11.6276 145.5 11.4385 144.662 11.4385C143.774 11.4385 142.976 11.6276 142.269 12.0058C141.961 12.1632 141.682 12.3516 141.43 12.5712V11.6852Z" fill="white"/>
</g>
<defs>
<clipPath id="clip0_2510_4635">
<rect width="157.118" height="31.1125" fill="white" transform="translate(0 0.443848)"/>
</clipPath>
</defs>
</svg>
