<svg width="152" height="60" viewBox="0 0 152 60" fill="none" xmlns="http://www.w3.org/2000/svg">
<path d="M66.7852 38.814H69.7575V52.5549H66.7852V38.814Z" fill="white"/>
<path d="M82.3833 41.574H78.5548V52.5549H75.5824V41.574H71.7539V38.814H82.3694L82.3833 41.574Z" fill="white"/>
<path d="M92.0433 52.8525C89.3842 52.8525 87.6057 51.3316 87.5918 49.0623H90.3762C90.3762 50.0055 91.114 50.4754 92.1408 50.4754C92.9343 50.4754 93.6478 50.1273 93.6478 49.4069C93.6478 48.6864 92.729 48.4636 91.6083 48.2757C89.9168 47.9938 87.7623 47.5413 87.7623 45.0423C87.7623 43.0376 89.4678 41.6523 92.0259 41.6523C94.5841 41.6523 96.2652 43.0759 96.2756 45.1955H93.5539C93.5539 44.3532 92.9552 43.9355 91.9528 43.9355C91.0618 43.9355 90.5363 44.3462 90.5363 44.9518C90.5363 45.6479 91.4412 45.822 92.541 46.0238C94.2813 46.3336 96.4775 46.699 96.4775 49.2816C96.4775 51.4429 94.7094 52.8525 92.0329 52.8525H92.0433Z" fill="white"/>
<path d="M103.515 52.8525C102.015 52.8763 100.569 52.2905 99.5084 51.2291C98.4477 50.1677 97.8628 48.7215 97.8875 47.2211C97.8875 44.0434 100.324 41.6523 103.529 41.6523C106.275 41.6523 108.402 43.3926 108.921 45.9995H106.077C105.639 44.9783 104.626 44.3244 103.515 44.3462C101.96 44.3462 100.79 45.5957 100.79 47.235C100.79 48.8743 101.981 50.1586 103.515 50.1586C104.658 50.1649 105.681 49.4533 106.074 48.3801H108.959C108.507 51.0159 106.189 52.9204 103.515 52.8525Z" fill="white"/>
<path d="M120.811 46.1086V52.551H117.943V46.5854C117.943 44.9983 117.382 44.2117 116.095 44.2117C114.668 44.2117 113.718 45.2559 113.718 46.9752V52.544H110.85V38.1313H113.718V42.9344C114.587 42.1265 115.733 41.6841 116.92 41.6988C119.321 41.7128 120.811 43.4112 120.811 46.1086Z" fill="white"/>
<path fill-rule="evenodd" clip-rule="evenodd" d="M128.465 41.6489C125.173 41.6489 122.736 44.0331 122.736 47.249C122.736 50.4441 125.197 52.8491 128.465 52.8491C131.733 52.8491 134.198 50.4615 134.198 47.249C134.198 44.0365 131.758 41.6489 128.465 41.6489ZM128.464 44.3451C130.117 44.3451 131.29 45.5355 131.29 47.2513C131.29 48.9672 130.117 50.1575 128.468 50.1575C126.818 50.1575 125.645 48.9602 125.645 47.2513C125.645 45.5424 126.811 44.3451 128.464 44.3451Z" fill="white"/>
<path fill-rule="evenodd" clip-rule="evenodd" d="M141.284 41.6484C137.991 41.6484 135.555 44.0326 135.555 47.2485C135.555 50.4436 138.015 52.8486 141.284 52.8486C144.552 52.8486 147.012 50.461 147.012 47.2485C147.012 44.036 144.576 41.6484 141.284 41.6484ZM141.285 44.3448C142.938 44.3448 144.108 45.5351 144.108 47.251H144.094C144.094 48.9669 142.938 50.1572 141.285 50.1572C139.632 50.1572 138.459 48.9669 138.459 47.251C138.459 45.5351 139.632 44.3448 141.285 44.3448Z" fill="white"/>
<path d="M149.064 38.1313H151.929V52.551H149.064V38.1313Z" fill="white"/>
<path fill-rule="evenodd" clip-rule="evenodd" d="M0 0.992188H43.506H58.0161V59.0083H0V0.992188ZM43.5069 44.499V30.0028V15.4962H14.504V44.499H43.5069Z" fill="white"/>
<path fill-rule="evenodd" clip-rule="evenodd" d="M75.5829 23.2644C80.3164 23.2644 83.9048 19.8048 83.9048 15.1549C83.9048 10.5015 80.3094 7.04541 75.5829 7.04541H66.5059V30.6257H71.6082V23.2644H75.5829ZM77.7899 12.7218C78.4329 13.3642 78.7759 14.2475 78.7348 15.1555C78.7779 16.0647 78.4358 16.9499 77.7926 17.5938C77.1493 18.2377 76.2644 18.5807 75.3552 18.5385H71.6068V11.7794H75.3552C76.2632 11.7374 77.1469 12.0795 77.7899 12.7218Z" fill="white"/>
<path d="M87.459 7.04883H92.5614V30.6291H87.459V7.04883Z" fill="white"/>
<path d="M110.502 30.6291L105.849 22.53L101.133 30.6291H95.4004L102.734 18.2525L95.8668 7.04883H101.596L105.807 14.3195L110.053 7.04883H115.643L108.873 18.4404L116.228 30.6221L110.502 30.6291Z" fill="white"/>
<path d="M133.545 25.8852V30.6291H119.031V7.04883H133.193V11.7614H124.144V16.4218H132.323V21.0404H124.144V25.8852H133.545Z" fill="white"/>
<path d="M152.001 25.8956V30.6291H137.846V7.04883H142.948V25.8956H152.001Z" fill="white"/>
</svg>
