<svg width="141" height="55" viewBox="0 0 141 55" fill="none" xmlns="http://www.w3.org/2000/svg">
<g id="Asset 13">
<path id="Path" d="M61.9512 35.5503H64.7084V48.2967H61.9512V35.5503Z" fill="black"/>
<path id="Path_2" d="M76.4206 38.1106H72.8692V48.2967H70.112V38.1106H66.5605V35.5503H76.4077L76.4206 38.1106Z" fill="black"/>
<path id="Path_3" d="M85.3813 48.5727C82.9147 48.5727 81.2649 47.1618 81.252 45.0568H83.8348C83.8348 45.9317 84.5193 46.3676 85.4717 46.3676C86.2078 46.3676 86.8697 46.0447 86.8697 45.3764C86.8697 44.7081 86.0173 44.5014 84.9777 44.3271C83.4086 44.0656 81.4102 43.6459 81.4102 41.3277C81.4102 39.4681 82.9922 38.1831 85.3652 38.1831C87.7382 38.1831 89.2976 39.5036 89.3073 41.4698H86.7825C86.7825 40.6885 86.2272 40.3011 85.2974 40.3011C84.4709 40.3011 83.9833 40.682 83.9833 41.2438C83.9833 41.8895 84.8228 42.0509 85.843 42.2382C87.4573 42.5256 89.4945 42.8646 89.4945 45.2602C89.4945 47.2651 87.8544 48.5727 85.3716 48.5727H85.3813Z" fill="black"/>
<path id="Path_4" d="M96.0241 48.5727C94.6323 48.5947 93.291 48.0513 92.3071 47.0668C91.3231 46.0822 90.7805 44.7406 90.8034 43.3488C90.8034 40.4011 93.0634 38.1831 96.037 38.1831C98.5843 38.1831 100.557 39.7974 101.038 42.2156H98.4003C97.9943 41.2683 97.0545 40.6618 96.0241 40.682C94.5809 40.682 93.4961 41.8411 93.4961 43.3618C93.4961 44.8824 94.6002 46.0738 96.0241 46.0738C97.0839 46.0796 98.0333 45.4195 98.3971 44.424H101.074C100.654 46.869 98.5039 48.6356 96.0241 48.5727Z" fill="black"/>
<path id="Path_5" d="M112.066 42.3174V48.2935H109.406V42.7597C109.406 41.2875 108.886 40.5578 107.692 40.5578C106.368 40.5578 105.487 41.5264 105.487 43.1213V48.287H102.826V34.9175H105.487V39.3729C106.293 38.6235 107.356 38.2131 108.457 38.2268C110.685 38.2397 112.066 39.8152 112.066 42.3174Z" fill="black"/>
<path id="Shape" fill-rule="evenodd" clip-rule="evenodd" d="M119.166 38.1802C116.112 38.1802 113.852 40.3918 113.852 43.375C113.852 46.3388 116.134 48.5698 119.166 48.5698C122.197 48.5698 124.483 46.355 124.483 43.375C124.483 40.395 122.22 38.1802 119.166 38.1802ZM119.164 40.6814C120.698 40.6814 121.786 41.7856 121.786 43.3773C121.786 44.969 120.698 46.0732 119.167 46.0732C117.637 46.0732 116.549 44.9625 116.549 43.3773C116.549 41.7921 117.63 40.6814 119.164 40.6814Z" fill="black"/>
<path id="Shape_2" fill-rule="evenodd" clip-rule="evenodd" d="M131.058 38.1797C128.004 38.1797 125.744 40.3913 125.744 43.3745C125.744 46.3383 128.027 48.5693 131.058 48.5693C134.09 48.5693 136.373 46.3545 136.373 43.3745C136.373 40.3945 134.113 38.1797 131.058 38.1797ZM131.061 40.6812C132.595 40.6812 133.679 41.7853 133.679 43.377H133.667C133.667 44.9687 132.595 46.0729 131.061 46.0729C129.527 46.0729 128.439 44.9687 128.439 43.377C128.439 41.7853 129.527 40.6812 131.061 40.6812Z" fill="black"/>
<path id="Path_6" d="M138.275 34.9175H140.933V48.2935H138.275V34.9175Z" fill="black"/>
<path id="Shape_3" fill-rule="evenodd" clip-rule="evenodd" d="M0 0.46582H40.3573H53.8173V54.2831H0V0.46582ZM40.3589 40.8237V27.3767V13.9199H13.4551V40.8237H40.3589Z" fill="black"/>
<path id="Shape_4" fill-rule="evenodd" clip-rule="evenodd" d="M70.1116 21.1263C74.5024 21.1263 77.8311 17.917 77.8311 13.6037C77.8311 9.28704 74.496 6.08105 70.1116 6.08105H61.6914V27.9547H66.4245V21.1263H70.1116ZM72.1595 11.3462C72.7559 11.942 73.0741 12.7614 73.036 13.6037C73.076 14.447 72.7586 15.2682 72.1619 15.8655C71.5652 16.4628 70.7444 16.781 69.901 16.7419H66.4238V10.472H69.901C70.7432 10.433 71.563 10.7503 72.1595 11.3462Z" fill="black"/>
<path id="Path_7" d="M81.1289 6.08447H85.862V27.9581H81.1289V6.08447Z" fill="black"/>
<path id="Path_8" d="M102.505 27.9581L98.1883 20.4452L93.8136 27.9581H88.4961L95.2987 16.4773L88.9287 6.08447H94.243L98.1496 12.829L102.088 6.08447H107.274L100.994 16.6516L107.816 27.9517L102.505 27.9581Z" fill="black"/>
<path id="Path_9" d="M123.879 23.5576V27.9581H110.416V6.08447H123.553V10.456H115.159V14.7791H122.746V19.0634H115.159V23.5576H123.879Z" fill="black"/>
<path id="Path_10" d="M141 23.5673V27.9581H127.869V6.08447H132.602V23.5673H141Z" fill="black"/>
</g>
</svg>
