<svg width="233" height="47" viewBox="0 0 233 47" fill="none" xmlns="http://www.w3.org/2000/svg">
<path id="Vector" d="M62.3452 11.0723H71.0696L66.1829 34.2498C65.2857 38.6396 63.5738 41.1521 60.9786 42.9328C58.3537 44.456 55.3395 45.1759 52.3096 45.0034C46.5393 45.0034 41.0036 42.5877 40.4515 36.7208H49.2311C49.5071 38.1013 50.7772 38.8881 52.7098 38.8881C55.3189 38.8881 56.5198 37.3144 57.0583 34.8434L57.5827 32.2895H57.3895C56.6191 33.1364 55.6847 33.8177 54.643 34.2923C53.6011 34.7669 52.4739 35.0249 51.3294 35.0505C46.2494 35.0505 42.2184 31.0058 42.3013 25.0836C42.4118 18.1815 46.9119 10.3406 54.463 10.3406C55.894 10.2442 57.3225 10.5596 58.58 11.2495C59.8374 11.9392 60.8709 12.9747 61.5584 14.2335H61.7103L62.3452 11.0723ZM54.8495 28.5762C58.204 28.5762 60.0676 24.7111 60.1228 21.3842C60.1228 19.1617 59.2531 16.8839 56.6855 16.8839C53.1791 16.8839 51.3984 20.7905 51.3432 24.1449C51.3432 26.4089 52.2129 28.5762 54.7804 28.5762M152.792 29.3217C152.792 30.7987 151.521 31.3923 149.851 31.3923C147.09 31.3923 146.166 30.0119 146.152 28.0793H137.469C137.317 35.2852 143.75 37.0659 149.465 37.0659C156.767 37.0659 161.503 33.9047 161.6 27.5962C161.6 22.5574 157.306 21.0253 153.082 20.0451C149.838 19.2997 148.416 18.7613 148.429 17.5327C148.444 16.3041 149.893 15.8071 151.315 15.8071C153.096 15.8071 154.31 16.4421 154.435 18.0711H162.87C162.772 12.0523 157.347 10.2854 151.826 10.2854C145.117 10.2854 139.885 13.3361 139.802 19.1064C139.802 23.648 142.866 25.3184 147.49 26.5056C150.459 27.2924 152.819 27.5408 152.792 29.3217ZM217.299 14.8133H217.148C216.772 13.4538 215.943 12.2638 214.798 11.4402C213.653 10.6167 212.261 10.2092 210.852 10.2854C207.099 10.2854 204.807 12.149 202.64 14.9651H202.488L203.289 11.0723H194.508L189.249 36.2239H198.43L201.19 22.6541C201.824 19.7 203.33 17.6294 205.608 17.6294C207.886 17.6294 208.189 19.4514 207.72 21.6741L204.682 36.2239H213.862L216.624 22.6541C217.258 19.5068 218.764 17.6294 221.04 17.6294C223.318 17.6294 223.623 19.3549 223.153 21.6741L220.116 36.2239H229.295L232.581 21.2737C233.962 14.9651 231.85 10.2301 225.79 10.2301C224.104 10.2232 222.444 10.6391 220.961 11.4397C219.477 12.2404 218.219 13.4003 217.299 14.8133ZM0.84668 36.2239H10.3303L17.6604 0.953613H8.19063L0.84668 36.2239ZM29.3941 10.3268C35.7994 10.3268 41.9148 13.8331 41.8181 21.7706C41.7353 30.4536 35.827 36.9555 26.7989 36.9555C20.5869 36.9555 14.3751 33.5044 14.4854 25.6083C14.6373 17.1324 20.4627 10.3268 29.3941 10.3268ZM27.0613 30.7987C31.106 30.7987 32.583 24.9318 32.583 21.4807C32.583 19.0098 31.8238 16.594 29.1594 16.594C25.1562 16.594 23.7896 22.806 23.7896 26.0087C23.7896 28.5762 24.5074 30.7987 27.1165 30.7987M20.8216 0.953613L19.4412 8.00766H99.0788L100.459 0.953613H20.8216ZM84.8741 10.3268C91.2793 10.3268 97.3946 13.8331 97.2981 21.7706C97.2152 30.4536 91.2931 36.9555 82.265 36.9555C76.053 36.9555 69.841 33.5044 69.9654 25.6083C70.1586 17.1324 75.984 10.3268 84.8741 10.3268ZM82.5826 30.7987C86.6273 30.7987 88.1043 24.9318 88.1043 21.4807C88.1043 19.0098 87.3313 16.594 84.667 16.594C80.6775 16.594 79.2971 22.806 79.2971 26.0087C79.2971 28.5762 80.0149 30.7987 82.6378 30.7987M103.717 0.953613L102.337 8.00766H111.503L112.883 0.953613H103.717ZM96.3732 36.2239H105.553L110.813 11.0723H101.577L96.3732 36.2239ZM125.666 37.0659C124.205 37.1696 122.744 36.8643 121.447 36.184C120.149 35.5037 119.067 34.4754 118.322 33.2146H118.17L115.409 45.9421H106.119L113.573 11.0723H122.298L121.608 14.4267C122.519 13.1876 123.699 12.1712 125.059 11.4539C126.42 10.7366 127.925 10.3371 129.462 10.2854C134.984 10.2854 138.228 15.0203 138.132 21.1771C138.007 28.9213 133.99 37.0659 125.611 37.0659H125.666ZM125.307 17.4085C121.76 17.4085 119.578 21.9501 119.523 25.4427C119.523 27.8722 120.379 30.5778 123.292 30.5778C127.088 30.5778 128.648 25.5531 128.689 22.1985C128.689 19.9209 128.027 17.4085 125.307 17.4085ZM178.386 32.262H178.537L177.737 36.2515H186.46L191.721 11.0998H182.555L179.628 25.1527C179.035 28.0654 177.239 29.5978 174.976 29.5978C172.711 29.5978 172.214 27.4718 172.67 25.2493L175.638 11.0998H166.472L163.227 26.6298C161.847 33.3939 164.995 37.0384 170.269 37.0384C171.924 37.0222 173.547 36.5697 174.972 35.7262C176.396 34.8827 177.575 33.6782 178.386 32.2344V32.262ZM227.625 46.0665L229.005 39.0123H120.144L118.764 46.0665H227.625Z" fill="white"/>
</svg>
